<?xml version="1.0" standalone="no"?>
<!DOCTYPE svg PUBLIC "-//W3C//DTD SVG 20010904//EN"
 "http://www.w3.org/TR/2001/REC-SVG-20010904/DTD/svg10.dtd">
<svg version="1.0" xmlns="http://www.w3.org/2000/svg"
 width="512.000000pt" height="512.000000pt" viewBox="0 0 512.000000 512.000000"
 preserveAspectRatio="xMidYMid meet">

<g transform="translate(0.000000,512.000000) scale(0.100000,-0.100000)"
fill="#000000" stroke="none">
<path d="M2390 4953 c-300 -23 -589 -100 -857 -228 -254 -121 -466 -270 -657
-459 -203 -202 -340 -393 -467 -651 -118 -242 -184 -455 -226 -725 -24 -159
-24 -501 0 -660 39 -254 107 -475 212 -697 121 -254 270 -466 459 -657 200
-202 394 -340 651 -467 344 -168 669 -243 1055 -243 386 0 715 76 1055 243
485 239 856 608 1090 1086 115 233 180 431 219 665 129 767 -120 1542 -670
2094 -297 298 -690 523 -1087 625 -256 66 -537 93 -777 74z m678 -808 c284
-67 475 -323 459 -615 -14 -250 -170 -454 -412 -536 -138 -46 -318 -34 -444
31 -208 106 -331 304 -331 535 0 140 38 253 123 366 138 182 384 271 605 219z
m719 -939 c69 -36 116 -115 116 -196 0 -196 -225 -300 -374 -172 -82 70 -102
174 -51 273 32 64 87 106 152 117 50 9 116 0 157 -22z m-1502 -3 c172 -86 172
-329 1 -409 -180 -84 -369 75 -316 266 36 131 195 203 315 143z m380 -423 c3
-5 -6 -25 -19 -45 -14 -19 -26 -41 -28 -47 -3 -7 -20 -1 -46 16 -23 14 -60 38
-83 52 -37 23 -39 27 -26 42 8 9 22 31 31 49 l16 32 75 -45 c41 -25 77 -49 80
-54z m723 50 l31 -49 -62 -37 c-34 -21 -71 -44 -83 -51 -19 -12 -23 -10 -52
36 l-31 50 82 51 c45 27 82 50 83 50 1 0 15 -22 32 -50z m-1494 -4 c14 -25 26
-47 26 -49 0 -3 -36 -28 -79 -55 l-79 -50 -31 49 -31 50 78 49 c42 27 80 50
84 50 3 0 18 -20 32 -44z m1119 -59 c111 -47 167 -164 133 -280 -29 -101 -147
-179 -244 -161 -118 21 -192 111 -192 232 0 152 165 266 303 209z m-1478 -21
c61 -28 87 -56 116 -120 17 -39 20 -61 16 -103 -18 -174 -206 -266 -348 -170
-119 80 -133 250 -30 351 69 68 159 83 246 42z m2423 -92 l22 -15 0 -824 c0
-735 -2 -825 -16 -839 -13 -14 -53 -16 -286 -16 -239 0 -274 2 -290 17 -17 15
-18 54 -18 835 0 805 0 818 20 838 19 19 33 20 283 20 221 0 266 -2 285 -16z
m-1486 -231 c17 -15 18 -51 18 -724 0 -630 -2 -709 -16 -723 -13 -14 -54 -16
-289 -16 -272 0 -274 0 -289 22 -14 20 -16 105 -16 720 0 685 0 698 20 718 19
19 33 20 287 20 234 0 269 -2 285 -17z m742 -454 l26 -20 0 -473 c0 -411 -2
-474 -16 -494 -15 -22 -17 -22 -289 -22 -236 0 -276 2 -289 16 -14 14 -16 70
-14 502 l3 486 25 13 c18 9 94 13 276 13 239 0 253 -1 278 -21z m-1484 -229
c19 -19 20 -33 20 -382 0 -322 -2 -363 -17 -380 -15 -17 -37 -18 -286 -18
-238 0 -273 2 -289 17 -17 15 -18 40 -18 384 l0 368 22 15 c19 14 64 16 285
16 250 0 264 -1 283 -20z"/>
<path d="M2902 4004 c-18 -12 -22 -25 -22 -69 0 -49 -3 -56 -27 -69 -66 -34
-103 -96 -103 -171 0 -107 60 -169 182 -190 40 -6 78 -44 78 -77 0 -11 -14
-33 -30 -50 -25 -24 -36 -29 -58 -23 -38 9 -59 31 -66 67 -8 43 -23 58 -57 58
-19 0 -34 -8 -44 -24 -32 -48 21 -160 91 -193 33 -16 34 -19 34 -75 0 -46 4
-59 19 -68 53 -28 91 5 91 81 0 42 3 48 37 70 45 29 80 79 89 125 19 101 -55
203 -159 219 -69 11 -78 15 -92 48 -34 81 58 145 120 82 14 -13 25 -35 25 -48
0 -49 61 -74 93 -39 44 48 -7 171 -84 202 -27 11 -29 16 -29 64 0 77 -40 114
-88 80z"/>
</g>
</svg>
